<svg width="2697" height="2000" viewBox="0 0 2197 1602" fill="none" xmlns="http://www.w3.org/2000/svg">
<g clip-path="url(#clip0_409_3639)">
<rect width="" height="" rx="96" fill=""/>
<path d="M1056.66 1294.44C1045 1351.67 969.44 1386.11 842.218 1334.44C709.996 1281.11 652.773 1153.89 638.329 1116.11C716.662 969.444 662.218 867.777 662.218 867.777C842.773 852.222 1000.55 1063.33 1000.55 1063.33L1025 1167.78C1027.22 1176.67 1031.66 1184.44 1038.33 1190C1050 1210.56 1063.88 1257.78 1056.66 1294.44Z" fill="white"/>
<path d="M635.553 1117.78C646.109 1101.67 652.776 1082.78 657.22 1064.44C665.553 1026.11 668.331 987.222 668.887 948.333V933.889C667.22 919.444 662.22 904.444 656.665 891.111C649.442 873.333 675.554 862.222 683.887 880C684.998 882.222 684.998 886.111 684.998 888.333C686.665 963.889 689.998 1061.11 642.22 1123.89C638.887 1127.22 632.22 1122.22 635.553 1117.78Z" fill="black"/>
<path d="M1006.66 1062.22C1015 1067.22 1017.77 1073.89 1018.88 1080.56C1022.22 1093.89 1021.11 1108.33 1024.44 1122.22C1027.22 1135.56 1035.55 1148.33 1037.77 1162.22C1040.55 1176.67 1048.88 1207.22 1052.22 1222.22C1053.33 1225.56 1051.11 1229.44 1047.22 1230C1045 1230.56 1043.33 1230 1041.66 1228.89C1034.44 1222.78 1031.11 1216.67 1026.66 1208.89C1019.44 1195.56 1014.44 1183.33 1010 1168.33C1006.11 1155 1007.77 1140.56 1004.44 1126.67C1001.66 1113.33 993.885 1100.56 991.107 1086.67C989.441 1080 988.885 1072.78 993.885 1064.44C997.218 1061.11 1002.77 1060 1006.66 1062.22Z" fill="black"/>
<path d="M1046.66 1208.89C940.553 1203.33 853.887 1170 769.442 1019.44C840.553 1082.22 924.442 1106.11 1012.78 1117.22L1024.44 1168.33C1026.66 1177.22 1040 1203.33 1046.66 1208.89Z" fill="black"/>
<path d="M1042.22 1188.33C1061.11 1223.89 1072.22 1268.33 1060.56 1307.78C1051.67 1335.56 1026.11 1356.11 998.334 1363.89C933.889 1381.11 859.445 1353.89 802.222 1323.33C731.667 1283.89 679.445 1217.78 646.111 1145.56C643.889 1140 651.667 1135.56 655 1141.11C666.667 1164.44 680 1187.22 695 1207.78C710 1228.89 727.222 1248.33 746.667 1265.56C803.334 1316.67 880 1348.33 956.667 1348.33C1035.56 1346.11 1065.56 1304.44 1047.22 1227.78C1044.44 1215.56 1040 1202.78 1033.89 1192.22C1030.56 1187.78 1038.89 1182.78 1042.22 1188.33Z" fill="black"/>
<path d="M1257.22 521.11C1267.22 567.777 1233.89 617.777 1233.89 742.221C1233.89 869.444 1210.55 1007.78 1114.44 1103.89C1031.66 1186.67 936.665 1183.33 824.998 1096.11C809.443 1083.89 754.998 1042.78 741.109 1028.89C724.998 1012.78 716.109 1001.11 708.331 988.888C701.665 977.777 703.331 913.333 693.887 898.333C669.443 857.777 664.443 901.666 632.776 866.11C588.887 818.333 536.109 722.222 562.22 552.222C604.443 276.666 822.776 244.444 984.443 274.999C1147.22 306.11 1230.55 398.333 1257.22 521.11Z" fill="white"/>
<path d="M660.554 915.555C647.776 894.444 631.665 875.555 616.665 856.11C601.665 835.555 589.443 813.888 579.443 790.555C522.776 653.333 531.109 473.888 631.665 358.333C700.554 279.444 809.443 253.333 909.443 258.888C1009.44 264.999 1113.33 290.555 1187.22 362.777C1230 404.444 1257.22 459.999 1269.44 517.777C1273.33 536.11 1270.55 556.11 1266.11 573.333C1253.33 621.666 1241.11 667.777 1240 717.777C1240.55 792.222 1238.33 868.333 1216.66 939.999C1201.11 987.777 1182.78 1035.55 1153.89 1077.22C1123.89 1119.44 1078.89 1153.33 1027.22 1163.33C923.331 1184.44 826.109 1118.89 757.22 1047.78C754.443 1044.44 758.331 1040.55 761.665 1042.78C801.109 1072.78 841.665 1100.55 885.554 1119.44C1012.22 1177.78 1117.22 1123.89 1172.78 1001.67C1219.44 912.777 1232.78 816.666 1228.89 717.222C1228.89 692.222 1230 667.222 1233.33 642.222C1236.66 606.11 1248.89 569.999 1248.33 534.444C1238.89 476.666 1212.22 421.11 1172.22 378.333C1077.22 277.777 894.998 248.333 767.22 293.888C616.665 347.222 576.109 498.888 567.776 643.888C562.22 730.555 587.776 815.555 653.331 874.999L679.443 902.222C688.331 914.444 669.443 928.888 660.554 915.555Z" fill="black"/>
<path d="M726.109 738.888C726.109 738.888 708.887 655.555 627.776 665.555C557.776 674.444 533.332 842.221 692.22 888.888" fill="white"/>
<path d="M684.998 816.11C672.22 808.888 663.332 796.666 662.776 781.666C663.332 770.555 664.998 757.777 662.22 746.666C660.554 736.11 649.443 733.333 641.109 733.888C632.22 735.555 626.665 746.666 624.998 755.555C624.998 756.11 624.443 757.777 624.443 758.333C623.887 761.11 619.443 761.11 618.332 758.333C611.109 736.666 627.22 712.777 650.554 715.555C683.332 717.777 687.776 752.221 681.665 778.333C678.332 789.444 682.776 799.444 688.887 808.888L689.998 810.555C692.776 813.888 688.332 818.333 684.998 816.11Z" fill="black"/>
<path d="M1129.44 679.999C1137.78 719.444 1153.33 756.11 1172.78 790.555C1190 832.777 1145.55 872.777 1106.11 871.11C1101.66 871.11 1101.11 864.999 1105 863.888C1130 856.11 1152.78 839.444 1156.66 813.888C1158.33 806.11 1156.11 799.444 1152.22 792.777C1133.89 758.333 1122.78 718.888 1125.55 679.999C1125.55 677.222 1129.44 677.222 1129.44 679.999Z" fill="black"/>
<path d="M723.333 739.443C710.556 706.666 682.778 675.555 645.556 676.11C642.222 675.555 636.667 676.666 633.334 676.666C623.889 677.221 616.111 680.555 608.889 687.221C573.334 722.777 579.445 785.555 608.334 824.999C618.334 838.888 631.111 851.11 645.556 861.11C660 871.11 676.111 878.888 693.333 885.555C697.222 886.666 695.556 892.777 691.667 892.221C654.445 884.443 618.889 866.11 594.445 835.555C556.667 789.999 548.889 713.888 593.889 669.443C603.889 660.555 617.778 653.888 631.667 653.888C636.111 653.888 642.778 652.777 647.222 653.888C670.556 654.999 692.778 666.666 707.222 684.999C720 700.554 727.222 719.443 729.445 738.332C729.445 741.666 724.445 742.777 723.333 739.443Z" fill="black"/>
<path d="M773.779 579.112C773.779 579.112 613.224 594.112 544.335 576.334C544.335 576.334 555.446 385.223 634.89 283.556C714.335 181.89 1022.67 181.334 1145.45 226.89C1256.56 268.556 1271 457.445 1271 457.445L773.779 579.112Z" fill="black"/>
<path d="M1271.55 457.445L794.888 574.111C792.111 510.222 785.444 369.111 818.222 294.667C857.666 205.222 1087.11 205.778 1183.22 251.333C1259.89 326.333 1271.55 457.445 1271.55 457.445Z" fill="white"/>
<path d="M1278.22 462.445C1118.22 503 957.668 543 797.113 581.889C792.668 583 788.224 580.223 787.113 575.778C784.335 519.111 783.779 461.889 788.779 404.667C793.224 362.445 798.224 317.445 819.89 280.223C861.001 224.667 954.89 217.445 1018.22 217.445C1072.67 218 1142.67 228.556 1184.33 250.223C1239.89 303 1267.11 379.111 1279.33 453C1279.89 455.778 1280.45 459.111 1278.22 462.445ZM1264.89 452.445C1263.78 453.556 1263.22 456.889 1263.22 457.445C1263.22 455.778 1262.67 452.445 1262.67 450.778C1256 380.223 1228.78 301.889 1183.22 252.445C1112.67 221.889 1016 216.889 935.446 231.334C896.001 239.667 853.224 251.889 829.335 285.778C791.001 358.556 799.89 490.223 803.779 573L793.224 565.223C949.89 527.445 1107.11 489.667 1264.89 452.445Z" fill="black"/>
<path d="M1378.22 560.223C1378.22 627.445 1269.33 597.445 1269.33 597.445C1272.11 570.223 1272.11 549.668 1269.89 531.89C1268.22 519.112 1266 506.89 1263.22 494.668C1261 485.779 1258.78 476.89 1256.56 468.001C1292.11 464.112 1318.78 474.112 1337.67 488.556C1366.56 510.779 1378.22 543.556 1378.22 560.223Z" fill="black" stroke="black" stroke-width="3" stroke-miterlimit="10" stroke-linecap="round" stroke-linejoin="round"/>
<path d="M1041.55 361.335C1070.4 361.335 1093.78 337.954 1093.78 309.112C1093.78 280.271 1070.4 256.89 1041.55 256.89C1012.71 256.89 989.332 280.271 989.332 309.112C989.332 337.954 1012.71 361.335 1041.55 361.335Z" fill="white"/>
<path d="M1093.78 309.112C1093.78 333.001 1077.67 353.001 1056 359.112C1034.33 353.001 1018.22 333.001 1018.22 309.112C1018.22 285.223 1034.33 265.223 1056 259.112C1077.67 265.223 1093.78 285.223 1093.78 309.112Z" fill="#C9C9C9"/>
<path d="M1122.11 309.112C1122.11 338.001 1098.78 361.335 1069.89 361.335C1068.78 361.335 1067.11 361.335 1066 361.335C1064.89 361.335 1063.78 361.335 1062.67 360.779C1061.55 360.779 1060.44 360.223 1059.33 360.223C1058.22 360.223 1057.11 359.668 1056 359.668C1077.67 353.557 1093.78 333.557 1093.78 309.668C1093.78 285.779 1077.67 265.779 1056 259.668C1057.11 259.112 1058.22 259.112 1059.33 259.112C1060.44 259.112 1061 258.557 1062.11 258.557C1062.67 258.557 1063.22 258.557 1063.78 258.557C1064.33 258.557 1064.89 258.557 1066 258.557C1067.67 258.557 1068.78 258.557 1070.44 258.557C1098.78 256.89 1122.11 280.223 1122.11 309.112Z" fill="black"/>
<path d="M1041.55 270.223C1063.22 270.223 1080.44 287.446 1080.44 309.112C1080.44 330.779 1063.22 348.001 1041.55 348.001C1019.89 348.001 1002.67 330.779 1002.67 309.112C1002.67 287.446 1020.44 270.223 1041.55 270.223ZM1041.55 256.89C1012.67 256.89 989.332 280.223 989.332 309.112C989.332 338.001 1012.67 361.335 1041.55 361.335C1070.44 361.335 1093.78 338.001 1093.78 309.112C1093.78 280.223 1070.44 256.89 1041.55 256.89Z" fill="black"/>
<path d="M796.001 524.112C796.001 524.112 652.668 535.223 554.89 529.667C549.335 529.112 549.335 524.667 549.335 519.112L549.89 509.112C549.89 509.112 539.335 511.89 534.89 526.334C532.668 534.112 531.001 553.001 531.557 564.667C532.112 571.89 537.112 578.001 544.335 579.112C576.557 584.667 629.335 598.001 773.779 579.667C773.779 579.112 792.668 547.445 796.001 524.112Z" fill="black"/>
<path d="M1337.67 488.556C1314.33 470.778 1279.33 460.223 1231.56 472.445C1204.33 479.667 1172.11 494.112 1135.45 518.556C956.001 639.667 773.779 579.112 773.779 579.112C773.779 579.112 779.335 551.889 799.335 518.556C828.779 469.667 889.89 407.445 1012.67 399.667C1120.45 393 1199.89 413.556 1253.78 436.889C1307.11 460.223 1334.89 485.778 1337.67 488.556Z" fill="white"/>
<path d="M1344.33 494.112C1341 495.778 1334.33 495.778 1331 493.556C1329.33 493 1328.78 491.889 1327.67 491.334C1289.33 465.223 1239.89 473.556 1198.78 490.778C1153.22 510.223 1113.78 543 1067.67 561.334C975.446 600.223 869.89 608 773.223 580.223C772.668 580.223 772.112 579.112 772.112 578.556C781.001 522.445 818.779 473.556 864.335 441.334C911.001 408.556 968.223 394.667 1024.33 391.889C1122.11 386.889 1224.33 403.556 1308.78 456.334C1319.33 463 1329.89 470.223 1339.33 478.556L1341.56 480.223L1342.67 481.334C1344.33 482.445 1344.89 484.112 1345.45 486.334C1346 490.223 1344.89 493 1344.33 494.112ZM1331.56 483C1330.45 484.112 1328.78 486.334 1329.33 489.667C1329.89 491.334 1330.45 493 1331.56 494.112L1330.45 493.556C1321 485.223 1311 478 1300.45 471.334C1193.22 401.889 981.557 378 873.223 453.556C828.779 483.556 797.112 530.223 781.001 580.778L776.557 573C870.446 599.112 974.335 589.667 1063.22 550.778C1109.33 531.334 1147.11 498 1193.22 478C1237.11 458 1294.33 449.112 1337.11 478L1338.22 478.556C1338.78 479.112 1338.22 478.556 1337.67 478.556C1337.11 478.556 1335.45 478.556 1333.78 479.667C1332.11 480.223 1331.56 481.889 1331.56 483Z" fill="black"/>
<path d="M551.557 521.89C567.668 526.334 586.557 525.779 603.223 526.89C656.557 528.001 709.89 524.667 763.779 521.89C766.557 521.89 767.668 526.334 764.335 526.89C708.223 535.779 599.89 550.779 548.779 526.89C544.89 525.223 547.668 520.223 551.557 521.89Z" fill="white"/>
<path d="M684.888 271.889C680.443 276.889 673.221 281.889 671.554 286.889C671.554 286.889 671.554 286.889 671.554 286.334C671.554 285.778 671.554 285.223 670.999 285.223C670.999 284.667 670.443 284.667 670.443 284.667C672.11 285.223 673.777 285.223 675.999 285.223C695.443 285.223 725.999 279.667 746.554 277.445C758.221 275.778 770.443 274.112 782.666 273C783.221 273 783.777 273.556 783.777 274.112C783.777 274.667 783.221 275.223 783.221 275.223C760.443 283.556 737.11 289.667 713.221 294.112C699.332 296.334 684.888 299.667 670.443 296.889C659.332 294.667 657.665 284.667 666.554 278.556C668.221 275.223 687.665 265.778 684.888 271.889Z" fill="white"/>
<path d="M1010.56 791C1010.56 791 958.334 823.777 899.445 823.222C840.557 822.666 833.334 776.555 832.779 751.555C832.779 751.555 840.557 787.666 876.112 801C911.112 814.333 1010.56 791 1010.56 791Z" fill="black"/>
<path d="M1178.33 784.888C1178.33 784.888 1191.11 800.444 1208.33 811.555C1220 819.333 1235.55 810.999 1235.55 797.11C1235.55 797.11 1203.33 798.777 1178.33 784.888Z" fill="black"/>
<path d="M1030 642.667C999.997 639.889 924.442 633.778 895.553 631L873.331 629.333C854.997 628.222 840.553 643.778 837.22 661.556C836.109 667.111 836.109 676.556 836.109 682.111V704.889C836.109 718.778 835.553 733.222 840.553 746.556C849.442 777.667 877.775 802.667 911.109 798.778C914.442 798.222 934.997 796 938.886 795.445L983.886 790.444C998.331 789.333 1011.66 785.445 1024.44 777.667C1042.22 767.111 1059.44 751 1058.33 728.222L1059.44 706C1060.55 678.222 1068.33 645.445 1030 642.667ZM1031.66 624.333C1057.78 626.556 1075.55 653.778 1073.89 678.778C1073.89 682.111 1072.78 703.222 1072.22 707.111C1072.22 711.556 1071.11 731.556 1070.55 735.445C1067.78 773.222 1025.55 799.889 991.109 804.889C973.331 807.111 936.109 812.111 918.331 814.333C913.886 814.889 907.775 815.445 903.331 816C901.108 816 896.109 815.444 893.886 815.444C846.664 809.333 816.664 761 817.775 716C817.775 708.778 817.775 689.889 817.775 682.111C817.775 678.222 817.775 668.222 818.331 664.333C819.997 644.889 830.553 626 848.331 615.445C856.109 611 865.553 608.778 874.997 609.333L897.775 611.556C925.553 614.889 1002.22 622.111 1031.66 624.333Z" fill="black"/>
<path d="M1160.55 633.222C1172.78 631.556 1232.78 624.889 1243.89 623.778C1246.67 623.778 1253.89 622.667 1256.11 622.667C1280 619.334 1291.11 645.445 1293.33 664.889C1294.44 682.111 1293.33 698.778 1293.89 715.445C1293.89 727.111 1292.78 738.778 1290 749.889C1282.78 779.889 1261.67 811.556 1226.67 801.556C1218.33 799.889 1201.67 797.667 1193.89 796L1185.55 794.334C1169.44 791.556 1156.11 780.445 1147.22 768.222C1130.55 748.778 1133.89 722.667 1132.22 699.334C1130 676 1130.55 639.889 1160.55 633.222ZM1162.78 649.334C1145.55 657.111 1150 683.222 1150 698.778L1151.11 732.111C1151.67 753.222 1168.33 774.334 1188.33 779.889C1193.33 781 1207.22 783.778 1212.78 784.889L1228.89 788.222C1268.89 801 1284.44 745.445 1283.89 714.889C1282.22 689.334 1290 658.778 1271.67 638.222C1267.22 633.778 1262.78 632.667 1257.78 633.778C1255 634.334 1247.78 635.445 1245.55 636C1234.44 638.222 1174.44 647.667 1162.78 649.334Z" fill="black"/>
<path d="M826.665 684.889C822.221 694.889 818.332 693.778 810.554 693.778L794.443 693.222C773.888 692.111 751.11 690.444 730.554 687.667C719.443 686 707.777 684.333 696.665 681.555C692.221 680.444 689.443 676 690.554 671.555C691.665 667.667 694.999 664.889 698.888 665.444L731.11 667.111L763.332 668.222C773.888 668.778 801.11 669.333 811.665 669.889C817.221 669.889 822.221 670.444 827.777 668.778C829.999 668.222 832.221 669.333 832.777 671.555C833.332 672.667 832.777 673.222 832.777 674.333L826.665 684.889Z" fill="black"/>
<path d="M1063.33 673.222C1083.33 662.111 1136.11 646.556 1146.11 676.556C1150.55 684.333 1138.89 691.556 1133.89 683.778C1133.89 684.889 1131.11 683.778 1130 683.778C1108.89 682.111 1087.22 685.445 1066.11 687.111C1057.22 688.222 1055.55 676.556 1063.33 673.222Z" fill="black"/>
<path d="M968.333 713.223C968.333 713.779 968.333 714.334 968.333 714.334L967.777 729.89C967.222 743.223 956.111 753.223 942.777 752.668C929.444 752.112 919.444 740.445 920.555 727.668L921.111 712.112C921.111 709.334 922.222 706.001 923.333 703.779L967.777 706.001C967.777 708.223 968.333 710.446 968.333 713.223Z" fill="black"/>
<path d="M1200.55 725.445L1200 739.89C1199.44 752.112 1188.89 761.556 1176.66 761.001C1164.44 760.445 1155 749.89 1155.55 737.668L1156.11 723.223C1156.11 720.445 1156.66 717.668 1157.78 715.445L1199.44 717.112C1200 719.89 1200.55 722.668 1200.55 725.445Z" fill="black"/>
<path d="M1023.89 637.112C1036.11 638.779 1045.55 626.001 1041.11 613.779C1038.89 607.112 1035 601.001 1028.89 597.112C1010 585.445 939.442 584.334 902.22 611.001C868.887 635.445 968.331 629.334 1023.89 637.112Z" fill="black"/>
<path d="M1177.78 643.223C1167.78 643.223 1161.66 630.445 1166.66 619.89C1169.44 614.334 1173.33 609.334 1178.89 606.556C1196.11 598.223 1242.22 603.223 1262.78 631.556C1281.11 656.556 1223.89 642.668 1177.78 643.223Z" fill="black"/>
<path d="M1003.88 713.223L912.218 711.556C901.107 711.001 901.662 694.334 912.773 694.89L1004.44 701.556C1012.22 702.112 1011.66 713.223 1003.88 713.223Z" fill="black"/>
<path d="M1223.89 722.667L1156.11 723.778C1145 723.778 1144.44 707.667 1155.56 707.111C1156.11 707.111 1156.11 707.111 1156.67 707.111L1224.44 714.334C1229.44 714.889 1228.89 722.111 1223.89 722.667Z" fill="black"/>
<path d="M1139.22 963.666C1103.67 997.555 1036.44 970.333 1018.67 929.222C1016.44 924.222 1022 919.778 1026.44 922C1035.89 927 1044.22 932 1053.11 935.889C1078.67 947.555 1105.33 957 1133.67 954.222C1139.22 953.111 1143.11 959.778 1139.22 963.666Z" fill="black"/>
</g>
<defs>
<clipPath id="clip0_409_3639">
<rect width="2197" height="1602" rx="96" fill="white"/>
</clipPath>
</defs>
</svg>
